<?xml version="1.0" standalone="no"?>
<!DOCTYPE svg PUBLIC "-//W3C//DTD SVG 20010904//EN"
 "http://www.w3.org/TR/2001/REC-SVG-20010904/DTD/svg10.dtd">
<svg version="1.0" xmlns="http://www.w3.org/2000/svg"
 width="512.000000pt" height="512.000000pt" viewBox="0 0 512.000000 512.000000"
 preserveAspectRatio="xMidYMid meet">
<metadata>
Created by potrace 1.14, written by Peter Selinger 2001-2017
</metadata>
<g transform="translate(0.000000,512.000000) scale(0.100000,-0.100000)"
fill="#000000" stroke="none">
<path d="M795 4896 l-25 -25 0 -409 c0 -482 -7 -452 109 -452 290 0 660 -66
966 -172 833 -288 1533 -962 1850 -1782 124 -321 186 -608 206 -951 5 -93 12
-179 14 -191 9 -41 36 -44 456 -44 l400 0 23 23 c22 22 23 29 19 128 -13 337
-47 590 -119 878 -73 293 -142 483 -278 766 -529 1097 -1533 1892 -2731 2160
-151 33 -436 73 -580 80 -66 3 -157 8 -202 11 -78 5 -83 5 -108 -20z"/>
<path d="M811 3588 c-11 -4 -24 -16 -30 -27 -16 -29 -15 -781 1 -816 14 -30
21 -32 158 -39 235 -12 456 -73 685 -186 570 -284 942 -846 980 -1485 3 -55 8
-110 10 -121 9 -42 39 -45 454 -42 391 3 393 3 411 25 19 24 19 52 -1 288 -34
407 -173 813 -402 1175 -196 309 -507 620 -822 822 -259 165 -576 293 -888
357 -186 38 -509 67 -556 49z"/>
<path d="M1220 1397 c0 -385 -4 -625 -11 -663 -20 -111 -78 -167 -175 -167
-103 0 -158 64 -174 204 -5 45 -12 84 -14 86 -4 4 -340 -39 -497 -63 l-36 -5
9 -62 c42 -310 210 -505 483 -562 185 -39 436 -28 578 25 135 50 265 166 322
284 71 150 85 310 85 1014 l0 512 -285 0 -285 0 0 -603z"/>
</g>
</svg>
